<?xml version="1.0"?>
<svg xmlns="http://www.w3.org/2000/svg" xmlns:xlink="http://www.w3.org/1999/xlink" viewBox="0 0 2739.77 953.73">
  <defs>
    <style>.a{fill:url(#a);}.b{fill:url(#b);}.c{fill:url(#c);}.d{fill:#00a0ff;}.e{fill:url(#d);}.f{fill:url(#e);}.g{fill:#79c8fd;}.h{fill-opacity:0.6;}</style>
    <linearGradient id="a" x1="109.73" y1="236.43" x2="353.73" y2="236.43" gradientTransform="matrix(1, 0, 0, -1, 0, 1002.15)" gradientUnits="userSpaceOnUse">
      <stop offset="0" stop-color="#012e4a"/>
      <stop offset="0.3" stop-color="#012e4a"/>
      <stop offset="1" stop-color="#0275ba"/>
    </linearGradient>
    <linearGradient id="b" x1="746.61" y1="690.08" x2="902.32" y2="845.82" gradientTransform="matrix(1, 0, 0, -1, 0, 1002.15)" gradientUnits="userSpaceOnUse">
      <stop offset="0" stop-color="#0275ba"/>
      <stop offset="1" stop-color="#012e4a"/>
    </linearGradient>
    <linearGradient id="c" x1="397.09" y1="625.82" x2="799.5" y2="223.41" gradientTransform="matrix(1, 0, 0, -1, 0, 1002.15)" gradientUnits="userSpaceOnUse">
      <stop offset="0" stop-color="#012e4a"/>
      <stop offset="0.62" stop-color="#012e4a"/>
      <stop offset="1" stop-color="#0275ba"/>
    </linearGradient>
    <linearGradient id="d" x1="305.08" y1="247.36" x2="609.63" y2="774.83" gradientTransform="matrix(1, 0, 0, -1, 0, 1002.15)" gradientUnits="userSpaceOnUse">
      <stop offset="0" stop-color="#79c8fd"/>
      <stop offset="1" stop-color="#dae6de"/>
    </linearGradient>
    <linearGradient id="e" x1="212.25" y1="558.02" x2="467.76" y2="813.5" gradientTransform="matrix(1, 0, 0, -1, 0, 1002.15)" gradientUnits="userSpaceOnUse">
      <stop offset="0" stop-color="#0091e6"/>
      <stop offset="1" stop-color="#012e4a"/>
    </linearGradient>
  </defs>
  <path class="a" d="M327.43,919.38c9.57-45.06-218-164,0-285.73,110.05-61.36-157.15-93-215.3,96.26C94.88,786,174.57,892,223.59,930,235.16,938.87,317.89,964.43,327.43,919.38Z"/>
  <path class="b" d="M902.91,224.06,827.29,81.32s5.82,104.41-30.37,123.9C660.49,278.71,801.26,410.44,888,320.68c4.35-4.51,4-13.18,5.22-19.52A536.07,536.07,0,0,0,902.91,224.06Z"/>
  <path class="c" d="M276.64,499.42c-84.13,57.42,3.66,155.84,0,101.16-3.75-56.15,290.59-57.63,304.81-61.21,125.16-31.55,133.61,98.75,36.42,154.53C393.3,822.69,550.69,981,697.4,879.81c11.92-8.21,22.15-25.7,37.38-43.36,22.14-25.7,38.27-64,57.71-95,12.47-20,10.47-43.75,17-75.05C855.51,443.92,809.8,135.8,276.64,499.42Z"/>
  <path class="d" d="M158.07,486.91c-54.92,18-130.6-107.53-143.78-56.48-59.9,231.92,79.29,445.45,217.35,503.88-101.4-129.19,38.12-260.94,142.72-311.68C494.47,564.5,581.54,482.57,604.62,440,638.74,377.11,417,509.58,361,494.68,246.93,464.6,274.73,448.69,158.07,486.91Z"/>
  <path class="e" d="M407.91,129c-4.79-1.55-62.07,10.94-97.06,20.81C225,173.65,141.64,226.39,88.55,296.22c-234.25,301.34,69.74,441.71,304,317.45,86.94-46.1,319.36-99,382-30.62,55.91,61,11.23,193.07-77.49,296.66C887,719.2,870.61,355.68,750.15,309.56c-70.21-26.9-223.26,24.88-226.7,23.73C359.71,398.91,347.05,320,373.62,188.39,376.71,173.19,381.11,138.22,407.91,129Z"/>
  <path class="f" d="M176.81,284.37c-90.68,134,10.67,166.78,346.9,48.8,3.85-1.34-147-54.68-126.78-169.31C399,152,408.11,129,408.11,129h-.19c1,0-7.16-.8-45.17,15.44C362.75,144.53,228.87,207.46,176.81,284.37Z"/>
  <path class="g" d="M888,320.77c20.45-82.38-154.64-151.08-256.24-183.45C370,53.93,678-65,807.91,43.32,898.1,118.51,926.1,250.89,888,320.77Z"/>
  <path class="g" d="M894.75,306s-3.82,11.95-6.64,14.54a60.76,60.76,0,0,0,3.36-13.48C891.83,301.75,894.75,306,894.75,306Z"/>
  <rect class="h" x="1591.51" y="748.96" width="37.44" height="147.17"/>
  <path class="h" d="M2507.55,745.51q-31.11,0-49.54,20.73-18.14,20.75-18.14,56.45,0,36,18.14,56.45t49.54,20.45q31.39,0,49.53-20.45t18.15-56.45q0-35.72-18.43-56.45Q2538.65,745.51,2507.55,745.51Zm22.17,107.42q-8.05,10.65-22.17,10.66a26.52,26.52,0,0,1-22.18-11q-8.05-10.93-8.06-29.95t8.06-30q8.36-11.24,22.18-11.23,14.11,0,22.17,10.94t8.07,30.24Q2537.79,842,2529.72,852.93Z"/>
  <path class="h" d="M1464.23,613l5.18-34.27q-13.53-11.24-30-11.23-19.57,0-27.36,16.41V571h-37.44V718.13h37.44V636.05q0-31.68,25.35-31.68A45,45,0,0,1,1464.23,613Z"/>
  <path class="h" d="M1360.41,755a69.8,69.8,0,0,0-19-7.49,95.08,95.08,0,0,0-20.73-2q-34.56,0-60.19,17.28L1272,793q21.3-14.7,45.5-14.69,26.49,0,26.5,23.33v7.48q-14.4-6.9-33.7-6.91-24.19,0-41.47,12.39-17,12.38-17,36.28,0,23.34,15,36,15.27,12.68,39.17,12.68t38-14.12v10.66h36.86V802.24q0-17.85-5.47-29.66Q1370.2,760.49,1360.41,755ZM1344,854.66a44.33,44.33,0,0,1-30.82,12.09q-11.81,0-18.43-4.32-6.35-4.32-6.34-11.52,0-8.64,7.78-12.67,7.77-4.32,20.45-4.32a72.31,72.31,0,0,1,27.36,4.9Z"/>
  <path class="h" d="M2724.79,759.33q-14.68-13.82-36.58-13.82-25.34,0-39.45,17.28V749h-37.44V896.13h37.44V814.91q0-33.4,27.93-33.4,13.26,0,19.3,8.06,6.33,8.07,6.34,25.92v80.64h37.44V803.39Q2739.77,772.87,2724.79,759.33Z"/>
  <path class="h" d="M1320.43,701.14q18.13-20.45,18.14-56.45,0-35.72-18.43-56.45-18.15-20.73-49.25-20.73t-49.53,20.73q-18.15,20.75-18.15,56.45,0,36,18.15,56.45t49.53,20.45Q1302.28,721.59,1320.43,701.14Zm-71.71-26.5q-8.07-10.93-8.07-29.95t8.07-30q8.34-11.24,22.17-11.23,14.11,0,22.18,10.94t8.06,30.24q0,19.3-8.06,30.24-8.07,10.67-22.18,10.66A26.5,26.5,0,0,1,1248.72,674.64Z"/>
  <path class="h" d="M1128.4,805.7q-2.31,5.47-5.18,13.82-2.88-8.35-5.19-13.82l-39.39-88.41a91.94,91.94,0,0,0,27.87,4q49.83,0,72.29-49.82l-35.71-13.54q-15.55,25.92-36.58,25.92-21.6,0-33.12-20.16-11.23-20.16-11.23-46.37a119.06,119.06,0,0,1,3.74-30.53,55.23,55.23,0,0,1,14.12-25q10.65-10.95,26.49-11,12.39,0,20.74,5.76t16.41,18.15l34.85-15.84q-7.77-19-26.49-32.26-18.43-13.25-45.51-13.25-21.88,0-38.59,9.32V454.6H1129V417.73h-61.06V375.4h96.19V338.53H1029v201.6h17.44a68.93,68.93,0,0,0-5.92,8.37,122.92,122.92,0,0,0-14.11,33.12,138.06,138.06,0,0,0-4.61,35.71,156.35,156.35,0,0,0,4.32,37.44,123.24,123.24,0,0,0,14.11,33.12,68.13,68.13,0,0,0,4.73,6.64h-16v201.6h38.88V792.45q0-6.63-.58-15.84,3.47,10.08,6.05,15.84l49.25,107.14,49-107.14q2.6-5.76,6.05-15.84-.59,9.21-.58,15.84V896.13H1216V694.53H1178.8Z"/>
  <path class="h" d="M1465.67,375.68a21.63,21.63,0,0,0,21.89-21.88,20.19,20.19,0,0,0-6.34-15.27,22.26,22.26,0,0,0-31.1,0,20.8,20.8,0,0,0-6.34,15.27,21.63,21.63,0,0,0,21.89,21.88Z"/>
  <rect class="h" x="1446.95" y="392.96" width="37.44" height="147.17"/>
  <path class="h" d="M1290,529.76q15,13.83,36.58,13.83,25.64,0,39.45-17.28v13.82h37.44V393h-37.44v81.22q0,33.4-27.93,33.41-13.25,0-19.59-8.07-6-8.34-6-25.92V393h-37.44V485.7Q1275.07,515.94,1290,529.76Z"/>
  <polygon class="h" points="1231.86 332.2 1194.42 349.76 1194.42 540.13 1231.86 540.13 1231.86 332.2"/>
  <path class="h" d="M1613.4,688.42q9-18,9-43.73,0-36.57-16.7-56.73-16.41-20.46-44.06-20.45-20.46,0-31.68,14.11V571h-37.44V745.73q-21.43,1.69-34,17.06V749h-37.44V896.13h37.44V814.91q0-33.4,27.93-33.4,13.26,0,19.3,8.06,6.33,8.07,6.34,25.92v80.64h37.44V803.39q0-30.52-15-44.06a51.45,51.45,0,0,0-4.59-3.83v-48q11.22,14.1,31.39,14.11a55.92,55.92,0,0,0,27.58-6.75,22.1,22.1,0,0,0,5.76,10.51,21.79,21.79,0,0,0,15.55,6.33,21.62,21.62,0,0,0,21.89-21.88,20.22,20.22,0,0,0-6.33-15.27A20.85,20.85,0,0,0,1613.4,688.42Zm-36.22-13.49q-7.48,10.67-21.6,10.66-18.15,0-25.63-12.1V615.32q8.92-11.82,25.63-11.81,14.12,0,21.6,11.23,7.77,10.95,7.77,30Q1585,664.28,1577.18,674.93Z"/>
  <path class="h" d="M1877.27,721.59q26.51,0,42-11.52,15.56-11.8,15.55-33.12,0-19.87-12.67-30.53-12.67-10.95-35.71-18.43-28.8-8.64-28.8-17.86,0-10.93,18.72-10.94,15.55,0,28.8,12.38l25-20.45q-20.44-23.61-53.85-23.61-23,0-38.31,11.23-15.25,10.95-15.26,30.24,0,18.15,12.1,29.09,12.09,10.65,38.3,19.29,15,5.76,20.74,9.8,6,3.74,6,9.79,0,13-22.17,13-18.72,0-34.56-15.84l-24.77,21q8.64,12.1,24.77,19.3A82.43,82.43,0,0,0,1877.27,721.59Z"/>
  <path class="h" d="M1928,830.18q0,33.41-27.93,33.41-13.26,0-19.59-8.07-6-8.35-6-25.92V749H1837V841.7q0,30.24,15,44.06t36.58,13.83q25.62,0,39.45-17.28v13.82h37.44V749H1928Z"/>
  <path class="h" d="M1741.63,745.51q-20.46,0-31.68,14.11V749h-37.44V953.73l37.44-17V885.47q11.22,14.12,31.39,14.12,27.08,0,44.06-20.74t17-56.16q0-36.57-16.7-56.73Q1769.28,745.5,1741.63,745.51Zm15.55,107.42q-7.48,10.65-21.6,10.66-18.15,0-25.63-12.1V793.31q8.92-11.8,25.63-11.8,14.12,0,21.6,11.23,7.77,10.93,7.77,30Q1765,842.28,1757.18,852.93Z"/>
  <polygon class="h" points="2010.04 896.13 2047.48 896.13 2047.48 688.2 2010.04 705.76 2010.04 896.13"/>
  <path class="h" d="M2298.23,855.23V781.79h32.83V749h-32.83V688.2l-37.44,17.85V749h-21v32.83h21v78.92q0,38.88,35.71,38.88,18.15,0,32-6.63l4.32-32.54q-12.39,6.33-24.19,6.33Q2298.24,866.75,2298.23,855.23Z"/>
  <path class="h" d="M1613.19,403.62q-11.24-14.12-31.39-14.11-26.79,0-44.06,21-17,20.75-17,55.87,0,36.87,16.13,57,16.43,20.16,44.64,20.16,22.18,0,31.68-14.11v10.65h37.44V332.2l-37.44,17Zm0,92.16q-8.36,11.81-25.63,11.81-14.11,0-21.89-10.95-7.49-10.93-7.49-30.24,0-19.86,7.49-30.24,7.78-10.65,21.89-10.65,16.71,0,25.63,12.09Z"/>
  <path class="h" d="M2384.8,688.2a21.17,21.17,0,0,0-15.56,6.33,20.83,20.83,0,0,0-6.33,15.27,21.62,21.62,0,0,0,21.89,21.88,21.62,21.62,0,0,0,21.88-21.88,20.22,20.22,0,0,0-6.33-15.27A21.17,21.17,0,0,0,2384.8,688.2Z"/>
  <path class="h" d="M2192.07,755a69.93,69.93,0,0,0-19-7.49,95.11,95.11,0,0,0-20.74-2q-34.56,0-60.19,17.28L2103.65,793q21.32-14.7,45.51-14.69,26.49,0,26.49,23.33v7.48q-14.4-6.9-33.69-6.91-24.2,0-41.48,12.39-17,12.38-17,36.28,0,23.34,15,36,15.26,12.68,39.17,12.68t38-14.12v10.66h36.87V802.24q0-17.85-5.48-29.66Q2201.87,760.49,2192.07,755Zm-16.42,99.65a44.28,44.28,0,0,1-30.81,12.09q-11.82,0-18.44-4.32-6.33-4.32-6.33-11.52,0-8.64,7.77-12.67,7.78-4.32,20.45-4.32a72.24,72.24,0,0,1,27.36,4.9Z"/>
  <rect class="h" x="2366.08" y="748.96" width="37.44" height="147.17"/>
  <path class="h" d="M1748,704.31v13.82h37.44V571H1748v81.22q0,33.41-27.93,33.41-13.26,0-19.59-8.07-6-8.34-6-25.92V571H1657V663.7q0,30.24,15,44.06t36.58,13.83Q1734.18,721.59,1748,704.31Z"/>
</svg>
